<?xml version="1.0" standalone="no"?>
<!DOCTYPE svg PUBLIC "-//W3C//DTD SVG 20010904//EN"
 "http://www.w3.org/TR/2001/REC-SVG-20010904/DTD/svg10.dtd">
<svg version="1.0" xmlns="http://www.w3.org/2000/svg"
 width="700.000000pt" height="700.000000pt" viewBox="0 0 700.000000 700.000000"
 preserveAspectRatio="xMidYMid meet">
<metadata>
Created by potrace 1.11, written by Peter Selinger 2001-2013
</metadata>
<g transform="translate(0.000000,700.000000) scale(0.100000,-0.100000)"
fill="#000000" stroke="none">
<path d="M753 6990 c-61 -13 -172 -59 -222 -93 -97 -67 -195 -185 -235 -287
-47 -118 -45 30 -43 -3130 l2 -2975 23 -66 c74 -220 260 -387 477 -429 31 -6
976 -9 2495 -9 2732 -1 2512 -7 2663 71 158 82 294 259 322 418 3 19 8 44 10
55 2 11 4 230 4 488 l1 467 198 0 c223 0 250 7 284 70 17 32 18 64 18 436 -1
381 -2 402 -21 433 -33 54 -65 61 -284 61 l-195 0 0 250 0 250 193 1 c217 1
215 0 252 25 53 35 55 50 55 474 0 423 -2 441 -54 475 -35 23 -38 23 -253 24
l-193 1 0 250 0 250 193 1 c217 1 215 0 252 25 53 35 55 49 55 481 0 372 -1
400 -19 429 -35 57 -66 64 -285 64 l-196 0 -1 463 c-1 254 -1 466 0 471 4 20
-42 181 -61 214 -92 164 -204 262 -369 323 l-64 24 -2480 1 c-1364 1 -2499 -2
-2522 -6z m4927 -508 c20 -10 42 -32 52 -52 17 -33 18 -194 18 -2926 0 -2095
-3 -2900 -11 -2923 -6 -17 -27 -43 -47 -56 l-36 -25 -2398 0 c-2640 0 -2447
-5 -2488 62 -20 33 -20 41 -20 2938 l0 2905 22 34 c12 18 35 39 52 47 26 11
448 13 2426 14 2261 0 2397 -1 2430 -18z"/>
<path d="M3060 5483 c-321 -67 -583 -268 -724 -556 -86 -177 -115 -359 -92
-577 39 -369 336 -720 706 -833 158 -49 385 -55 545 -16 379 93 693 429 755
806 59 363 -62 703 -337 944 -143 125 -306 204 -488 236 -61 11 -307 8 -365
-4z"/>
<path d="M2325 3620 c-136 -20 -174 -33 -280 -95 -76 -44 -174 -135 -223 -206
-117 -171 -198 -436 -248 -809 -3 -19 -7 -127 -9 -240 -3 -156 0 -220 11 -270
34 -148 97 -265 197 -363 49 -48 96 -78 172 -108 l60 -24 1212 -3 c1326 -3
1278 -5 1400 55 114 56 226 198 283 359 31 86 32 95 35 274 2 102 -1 219 -5
260 -19 172 -24 209 -35 270 -3 14 -7 41 -10 60 -35 222 -158 493 -286 635
-109 121 -290 199 -474 207 -46 2 -60 -4 -180 -77 -178 -107 -345 -190 -437
-215 -102 -28 -214 -47 -263 -44 -64 4 -146 13 -154 18 -4 3 -20 7 -35 10
-111 20 -284 100 -498 229 -133 81 -155 88 -233 77z"/>
</g>
</svg>
